<svg width="22" height="14" viewBox="0 0 22 14" fill="none" xmlns="http://www.w3.org/2000/svg">
<path opacity="0.3" d="M19.4963 0.69088H14.0261V2.21217H19.5178L19.4963 0.69088ZM18.3418 11.1565C17.9268 11.4315 17.4368 11.5709 16.9392 11.5557C16.6098 11.59 16.2769 11.556 15.9613 11.4558C15.6457 11.3555 15.3542 11.1912 15.105 10.9731C14.6443 10.4508 14.4045 9.76992 14.4361 9.07417H21.5786C21.6301 8.34972 21.5682 7.62167 21.3952 6.91631C21.2278 6.24524 20.9349 5.61191 20.532 5.04976C20.1265 4.50447 19.6027 4.05813 19 3.74425C18.3293 3.41361 17.5897 3.24719 16.8421 3.25873C16.139 3.25358 15.4419 3.38932 14.7921 3.65794C14.1971 3.90878 13.658 4.27555 13.2061 4.73687C12.7555 5.20741 12.4066 5.76565 12.1811 6.37684C11.9391 7.03667 11.8185 7.73483 11.8251 8.4376C11.814 9.15035 11.9309 9.8593 12.1703 10.5307C12.3737 11.1387 12.6965 11.7 13.1198 12.1815C13.5577 12.6542 14.096 13.0229 14.695 13.2604C15.363 13.5149 16.0734 13.6394 16.7882 13.6273C17.7909 13.6585 18.781 13.396 19.6365 12.872C20.5007 12.258 21.1228 11.361 21.3952 10.3365H19.0108C18.8831 10.6754 18.6482 10.9634 18.3418 11.1565ZM14.6411 6.71131C14.7251 6.44232 14.8644 6.19389 15.0503 5.98205C15.2361 5.7702 15.4642 5.59963 15.72 5.48133C16.0588 5.32886 16.4276 5.25509 16.7989 5.26555C17.0672 5.24263 17.3372 5.27802 17.5905 5.36928C17.8438 5.46053 18.0743 5.60549 18.2663 5.79422C18.6329 6.24299 18.8682 6.78445 18.946 7.35867H14.4685C14.4859 7.13941 14.5257 6.92251 14.5871 6.71131H14.6411ZM8.93354 6.19343C9.48268 5.96476 9.95983 5.59198 10.3146 5.11449C10.6407 4.6074 10.8026 4.01219 10.7785 3.40978C10.7997 2.86043 10.6925 2.31371 10.4656 1.81297C10.275 1.37915 9.96897 1.00596 9.5809 0.734037C9.16945 0.451328 8.70223 0.260023 8.21066 0.172993C7.62892 0.0509808 7.03556 -0.00690753 6.44121 0.00036476H0V13.5733H6.58147C7.1821 13.5737 7.78034 13.4976 8.36171 13.3467C8.91277 13.2042 9.43484 12.9669 9.90458 12.6454C10.3596 12.3301 10.7301 11.9077 10.9835 11.4154C11.2639 10.865 11.4012 10.2527 11.3827 9.63521C11.4031 8.86997 11.1885 8.11685 10.7677 7.47735C10.3152 6.83423 9.64404 6.37783 8.8796 6.19343H8.93354ZM2.98864 2.32007H5.78307C6.03979 2.31975 6.29607 2.34141 6.54911 2.3848C6.7821 2.41933 7.00586 2.50003 7.20725 2.62217C7.40184 2.73223 7.5595 2.89741 7.66041 3.09689C7.78537 3.33611 7.84492 3.6041 7.83303 3.87372C7.85314 4.10595 7.81762 4.33963 7.72944 4.5554C7.64126 4.77117 7.50294 4.96282 7.32594 5.11449C6.93981 5.37995 6.47777 5.5125 6.00964 5.49212H2.98864V2.32007ZM8.21066 10.3473C8.09981 10.5672 7.93218 10.7535 7.72514 10.8868C7.50968 11.0208 7.27228 11.1157 7.02384 11.1673C6.74769 11.2291 6.46521 11.2581 6.18227 11.2536H2.94548V7.5313H6.18227C6.73772 7.50698 7.28625 7.66208 7.74672 7.97366C7.95475 8.16035 8.1159 8.3934 8.21712 8.65394C8.31834 8.91449 8.35678 9.19521 8.32934 9.47337C8.35851 9.76995 8.31787 10.0692 8.21066 10.3473Z" fill="white"/>
</svg>
